<svg width="687" height="61" viewBox="0 0 687 61" fill="none" xmlns="http://www.w3.org/2000/svg">
<path d="M87.5328 52.4785L65.5744 0L47 30.6775L28.5008 0L6.4672 52.4785H0V60.4319H33.2384V52.4785H28.2752L33.088 39.4121L47 61L60.912 39.4121L65.7248 52.4785H60.7616V60.4319H94V52.4785H87.5328Z" fill="#FF0013"/>
<path d="M100.071 49C98.8555 49 97.7355 48.696 96.7115 48.088C95.6875 47.448 94.8555 46.616 94.2155 45.592C93.6075 44.568 93.3035 43.448 93.3035 42.232V27.928C93.3035 26.712 93.6075 25.592 94.2155 24.568C94.8555 23.544 95.6875 22.728 96.7115 22.12C97.7355 21.48 98.8555 21.16 100.071 21.16H114.759C116.007 21.16 117.143 21.48 118.167 22.12C119.191 22.728 120.007 23.544 120.615 24.568C121.223 25.592 121.527 26.712 121.527 27.928V38.536H100.119V41.896C100.119 41.96 100.151 42.024 100.215 42.088C100.279 42.152 100.343 42.184 100.407 42.184H121.527V49H100.071ZM100.119 32.44H114.711V28.264C114.711 28.2 114.679 28.136 114.615 28.072C114.551 28.008 114.487 27.976 114.423 27.976H100.407C100.343 27.976 100.279 28.008 100.215 28.072C100.151 28.136 100.119 28.2 100.119 28.264V32.44ZM133.45 49C132.202 49 131.066 48.696 130.042 48.088C129.018 47.448 128.186 46.616 127.546 45.592C126.938 44.568 126.634 43.448 126.634 42.232V12.76H133.45V21.16H144.058V27.976H133.45V41.896C133.45 41.96 133.482 42.024 133.546 42.088C133.61 42.152 133.674 42.184 133.738 42.184H144.058V49H133.45ZM148.383 49V27.928C148.383 26.712 148.687 25.592 149.295 24.568C149.935 23.544 150.767 22.728 151.791 22.12C152.847 21.48 153.983 21.16 155.199 21.16H170.607V27.976H155.487C155.423 27.976 155.359 28.008 155.295 28.072C155.231 28.136 155.199 28.2 155.199 28.264V49H148.383ZM180.462 49C179.246 49 178.126 48.696 177.102 48.088C176.078 47.448 175.246 46.616 174.606 45.592C173.998 44.568 173.694 43.448 173.694 42.232V27.928C173.694 26.712 173.998 25.592 174.606 24.568C175.246 23.544 176.078 22.728 177.102 22.12C178.126 21.48 179.246 21.16 180.462 21.16H195.15C196.398 21.16 197.534 21.48 198.558 22.12C199.582 22.728 200.398 23.544 201.006 24.568C201.614 25.592 201.918 26.712 201.918 27.928V42.232C201.918 43.448 201.614 44.568 201.006 45.592C200.398 46.616 199.582 47.448 198.558 48.088C197.534 48.696 196.398 49 195.15 49H180.462ZM180.798 42.184H194.814C194.878 42.184 194.942 42.152 195.006 42.088C195.07 42.024 195.102 41.96 195.102 41.896V28.264C195.102 28.2 195.07 28.136 195.006 28.072C194.942 28.008 194.878 27.976 194.814 27.976H180.798C180.734 27.976 180.67 28.008 180.606 28.072C180.542 28.136 180.51 28.2 180.51 28.264V41.896C180.51 41.96 180.542 42.024 180.606 42.088C180.67 42.152 180.734 42.184 180.798 42.184ZM228.693 49C227.477 49 226.357 48.696 225.333 48.088C224.309 47.448 223.477 46.616 222.837 45.592C222.229 44.568 221.925 43.448 221.925 42.232V40.984H228.741V41.896C228.741 41.96 228.773 42.024 228.837 42.088C228.901 42.152 228.965 42.184 229.029 42.184H243.045C243.109 42.184 243.173 42.152 243.237 42.088C243.301 42.024 243.333 41.96 243.333 41.896V38.776C243.333 38.712 243.301 38.664 243.237 38.632C243.173 38.568 243.109 38.536 243.045 38.536H228.693C227.477 38.536 226.357 38.232 225.333 37.624C224.309 36.984 223.477 36.152 222.837 35.128C222.229 34.104 221.925 32.968 221.925 31.72V27.928C221.925 26.712 222.229 25.592 222.837 24.568C223.477 23.544 224.309 22.728 225.333 22.12C226.357 21.48 227.477 21.16 228.693 21.16H243.381C244.629 21.16 245.765 21.48 246.789 22.12C247.813 22.728 248.629 23.544 249.237 24.568C249.877 25.592 250.197 26.712 250.197 27.928V29.176H243.333V28.264C243.333 28.2 243.301 28.136 243.237 28.072C243.173 28.008 243.109 27.976 243.045 27.976H229.029C228.965 27.976 228.901 28.008 228.837 28.072C228.773 28.136 228.741 28.2 228.741 28.264V31.384C228.741 31.448 228.773 31.512 228.837 31.576C228.901 31.608 228.965 31.624 229.029 31.624H243.381C244.629 31.624 245.765 31.944 246.789 32.584C247.813 33.192 248.629 34.008 249.237 35.032C249.877 36.056 250.197 37.192 250.197 38.44V42.232C250.197 43.448 249.877 44.568 249.237 45.592C248.629 46.616 247.813 47.448 246.789 48.088C245.765 48.696 244.629 49 243.381 49H228.693ZM259.055 59.128V52.264H275.711C275.775 52.264 275.839 52.232 275.903 52.168C275.967 52.104 275.999 52.04 275.999 51.976V49H261.359C260.111 49 258.975 48.696 257.951 48.088C256.927 47.448 256.095 46.616 255.455 45.592C254.847 44.568 254.543 43.448 254.543 42.232V21.256H261.359V41.896C261.359 41.96 261.391 42.024 261.455 42.088C261.519 42.152 261.583 42.184 261.647 42.184H275.711C275.775 42.184 275.839 42.152 275.903 42.088C275.967 42.024 275.999 41.96 275.999 41.896V21.256H282.815V52.36C282.815 53.608 282.511 54.744 281.903 55.768C281.327 56.792 280.511 57.608 279.455 58.216C278.431 58.824 277.295 59.128 276.047 59.128H259.055ZM294.037 49C292.821 49 291.701 48.696 290.677 48.088C289.653 47.448 288.821 46.616 288.181 45.592C287.573 44.568 287.269 43.448 287.269 42.232V40.984H294.085V41.896C294.085 41.96 294.117 42.024 294.181 42.088C294.245 42.152 294.309 42.184 294.373 42.184H308.389C308.453 42.184 308.517 42.152 308.581 42.088C308.645 42.024 308.677 41.96 308.677 41.896V38.776C308.677 38.712 308.645 38.664 308.581 38.632C308.517 38.568 308.453 38.536 308.389 38.536H294.037C292.821 38.536 291.701 38.232 290.677 37.624C289.653 36.984 288.821 36.152 288.181 35.128C287.573 34.104 287.269 32.968 287.269 31.72V27.928C287.269 26.712 287.573 25.592 288.181 24.568C288.821 23.544 289.653 22.728 290.677 22.12C291.701 21.48 292.821 21.16 294.037 21.16H308.725C309.973 21.16 311.109 21.48 312.133 22.12C313.157 22.728 313.973 23.544 314.581 24.568C315.221 25.592 315.541 26.712 315.541 27.928V29.176H308.677V28.264C308.677 28.2 308.645 28.136 308.581 28.072C308.517 28.008 308.453 27.976 308.389 27.976H294.373C294.309 27.976 294.245 28.008 294.181 28.072C294.117 28.136 294.085 28.2 294.085 28.264V31.384C294.085 31.448 294.117 31.512 294.181 31.576C294.245 31.608 294.309 31.624 294.373 31.624H308.725C309.973 31.624 311.109 31.944 312.133 32.584C313.157 33.192 313.973 34.008 314.581 35.032C315.221 36.056 315.541 37.192 315.541 38.44V42.232C315.541 43.448 315.221 44.568 314.581 45.592C313.973 46.616 313.157 47.448 312.133 48.088C311.109 48.696 309.973 49 308.725 49H294.037ZM327.231 49C325.983 49 324.847 48.696 323.823 48.088C322.799 47.448 321.967 46.616 321.327 45.592C320.719 44.568 320.415 43.448 320.415 42.232V12.76H327.231V21.16H337.839V27.976H327.231V41.896C327.231 41.96 327.263 42.024 327.327 42.088C327.391 42.152 327.455 42.184 327.519 42.184H337.839V49H327.231ZM348.462 49C347.246 49 346.126 48.696 345.102 48.088C344.078 47.448 343.246 46.616 342.606 45.592C341.998 44.568 341.694 43.448 341.694 42.232V27.928C341.694 26.712 341.998 25.592 342.606 24.568C343.246 23.544 344.078 22.728 345.102 22.12C346.126 21.48 347.246 21.16 348.462 21.16H363.15C364.398 21.16 365.534 21.48 366.558 22.12C367.582 22.728 368.398 23.544 369.006 24.568C369.614 25.592 369.918 26.712 369.918 27.928V38.536H348.51V41.896C348.51 41.96 348.542 42.024 348.606 42.088C348.67 42.152 348.734 42.184 348.798 42.184H369.918V49H348.462ZM348.51 32.44H363.102V28.264C363.102 28.2 363.07 28.136 363.006 28.072C362.942 28.008 362.878 27.976 362.814 27.976H348.798C348.734 27.976 348.67 28.008 348.606 28.072C348.542 28.136 348.51 28.2 348.51 28.264V32.44ZM375.072 49V21.16H409.056C410.336 21.16 411.488 21.48 412.512 22.12C413.536 22.728 414.352 23.544 414.96 24.568C415.568 25.592 415.872 26.712 415.872 27.928V49H409.056V28.264C409.056 28.2 409.024 28.136 408.96 28.072C408.928 28.008 408.864 27.976 408.768 27.976H399.216C399.12 27.976 399.04 28.008 398.976 28.072C398.944 28.136 398.928 28.2 398.928 28.264V49H392.064V28.264C392.064 28.2 392.032 28.136 391.968 28.072C391.904 28.008 391.84 27.976 391.776 27.976H382.176C382.112 27.976 382.048 28.008 381.984 28.072C381.952 28.136 381.936 28.2 381.936 28.264V49H375.072ZM443.615 49C442.399 49 441.279 48.696 440.255 48.088C439.231 47.448 438.399 46.616 437.759 45.592C437.151 44.568 436.847 43.448 436.847 42.232V40.984H443.663V41.896C443.663 41.96 443.695 42.024 443.759 42.088C443.823 42.152 443.887 42.184 443.951 42.184H457.967C458.031 42.184 458.095 42.152 458.159 42.088C458.223 42.024 458.255 41.96 458.255 41.896V38.776C458.255 38.712 458.223 38.664 458.159 38.632C458.095 38.568 458.031 38.536 457.967 38.536H443.615C442.399 38.536 441.279 38.232 440.255 37.624C439.231 36.984 438.399 36.152 437.759 35.128C437.151 34.104 436.847 32.968 436.847 31.72V27.928C436.847 26.712 437.151 25.592 437.759 24.568C438.399 23.544 439.231 22.728 440.255 22.12C441.279 21.48 442.399 21.16 443.615 21.16H458.303C459.551 21.16 460.687 21.48 461.711 22.12C462.735 22.728 463.551 23.544 464.159 24.568C464.799 25.592 465.119 26.712 465.119 27.928V29.176H458.255V28.264C458.255 28.2 458.223 28.136 458.159 28.072C458.095 28.008 458.031 27.976 457.967 27.976H443.951C443.887 27.976 443.823 28.008 443.759 28.072C443.695 28.136 443.663 28.2 443.663 28.264V31.384C443.663 31.448 443.695 31.512 443.759 31.576C443.823 31.608 443.887 31.624 443.951 31.624H458.303C459.551 31.624 460.687 31.944 461.711 32.584C462.735 33.192 463.551 34.008 464.159 35.032C464.799 36.056 465.119 37.192 465.119 38.44V42.232C465.119 43.448 464.799 44.568 464.159 45.592C463.551 46.616 462.735 47.448 461.711 48.088C460.687 48.696 459.551 49 458.303 49H443.615ZM469.945 49V21.16H476.761V49H469.945ZM469.945 18.904V12.04H476.761V18.904H469.945ZM480.869 49V21.16H514.853C516.133 21.16 517.285 21.48 518.309 22.12C519.333 22.728 520.149 23.544 520.757 24.568C521.365 25.592 521.669 26.712 521.669 27.928V49H514.853V28.264C514.853 28.2 514.821 28.136 514.757 28.072C514.725 28.008 514.661 27.976 514.565 27.976H505.013C504.917 27.976 504.837 28.008 504.773 28.072C504.741 28.136 504.725 28.2 504.725 28.264V49H497.861V28.264C497.861 28.2 497.829 28.136 497.765 28.072C497.701 28.008 497.637 27.976 497.573 27.976H487.973C487.909 27.976 487.845 28.008 487.781 28.072C487.749 28.136 487.733 28.2 487.733 28.264V49H480.869ZM534.511 49C533.295 49 532.159 48.696 531.103 48.088C530.079 47.448 529.263 46.616 528.655 45.592C528.047 44.568 527.743 43.448 527.743 42.232V21.16H534.559V41.896C534.559 41.96 534.591 42.024 534.655 42.088C534.719 42.152 534.783 42.184 534.847 42.184H548.863C548.927 42.184 548.991 42.152 549.055 42.088C549.119 42.024 549.151 41.96 549.151 41.896V21.16H555.967V42.232C555.967 43.448 555.663 44.568 555.055 45.592C554.447 46.616 553.631 47.448 552.607 48.088C551.583 48.696 550.447 49 549.199 49H534.511ZM567.838 49C566.622 49 565.502 48.696 564.478 48.088C563.454 47.448 562.622 46.616 561.982 45.592C561.374 44.568 561.07 43.448 561.07 42.232V11.992H567.934V41.896C567.934 41.96 567.966 42.024 568.03 42.088C568.094 42.152 568.158 42.184 568.222 42.184H573.694V49H567.838ZM584.151 49C582.935 49 581.799 48.696 580.743 48.088C579.719 47.448 578.903 46.616 578.295 45.592C577.687 44.568 577.383 43.448 577.383 42.232V31.624H598.791V28.264C598.791 28.2 598.759 28.136 598.695 28.072C598.631 28.008 598.567 27.976 598.503 27.976H577.383V21.16H598.839C600.087 21.16 601.223 21.48 602.247 22.12C603.271 22.728 604.087 23.544 604.695 24.568C605.303 25.592 605.607 26.712 605.607 27.928V49H584.151ZM584.487 42.184H598.791V37.72H584.199V41.896C584.199 41.96 584.231 42.024 584.295 42.088C584.359 42.152 584.423 42.184 584.487 42.184ZM617.575 49C616.327 49 615.191 48.696 614.167 48.088C613.143 47.448 612.311 46.616 611.671 45.592C611.063 44.568 610.759 43.448 610.759 42.232V12.76H617.575V21.16H628.183V27.976H617.575V41.896C617.575 41.96 617.607 42.024 617.671 42.088C617.735 42.152 617.799 42.184 617.863 42.184H628.183V49H617.575ZM638.806 49C637.59 49 636.47 48.696 635.446 48.088C634.422 47.448 633.59 46.616 632.95 45.592C632.342 44.568 632.038 43.448 632.038 42.232V27.928C632.038 26.712 632.342 25.592 632.95 24.568C633.59 23.544 634.422 22.728 635.446 22.12C636.47 21.48 637.59 21.16 638.806 21.16H653.494C654.742 21.16 655.878 21.48 656.902 22.12C657.926 22.728 658.742 23.544 659.35 24.568C659.958 25.592 660.262 26.712 660.262 27.928V42.232C660.262 43.448 659.958 44.568 659.35 45.592C658.742 46.616 657.926 47.448 656.902 48.088C655.878 48.696 654.742 49 653.494 49H638.806ZM639.142 42.184H653.158C653.222 42.184 653.286 42.152 653.35 42.088C653.414 42.024 653.446 41.96 653.446 41.896V28.264C653.446 28.2 653.414 28.136 653.35 28.072C653.286 28.008 653.222 27.976 653.158 27.976H639.142C639.078 27.976 639.014 28.008 638.95 28.072C638.886 28.136 638.854 28.2 638.854 28.264V41.896C638.854 41.96 638.886 42.024 638.95 42.088C639.014 42.152 639.078 42.184 639.142 42.184ZM664.148 49V27.928C664.148 26.712 664.452 25.592 665.06 24.568C665.7 23.544 666.532 22.728 667.556 22.12C668.612 21.48 669.748 21.16 670.964 21.16H686.372V27.976H671.252C671.188 27.976 671.124 28.008 671.06 28.072C670.996 28.136 670.964 28.2 670.964 28.264V49H664.148Z" fill="white"/>
</svg>
