<svg width="77" height="191" viewBox="0 0 77 191" fill="none" xmlns="http://www.w3.org/2000/svg">
<path d="M31.6671 2.63198C33.429 1.6385 37.292 1.51627 38.3984 1.50186C39.347 1.51023 43.41 1.60668 45.2304 2.63309C47.2989 3.79942 53.7703 20.742 55.2773 24.7046C56.7843 28.6673 59.7984 41.1168 59.7984 41.1168C59.7984 41.1168 72.357 93.7499 72.8594 97.1445C73.3617 100.539 75.3711 184.864 74.8688 185.997C74.3901 187.076 41.5251 186.098 38.4307 186.004C35.1266 186.104 2.50559 187.071 2.02868 185.995C1.52633 184.863 3.53572 100.538 4.03806 97.1434C4.54041 93.7487 17.099 41.1157 17.099 41.1157C17.099 41.1157 20.1131 28.6662 21.6201 24.7035C23.1272 20.7408 29.5985 3.79831 31.6671 2.63198Z" fill="white"/>
<path d="M38.6999 1.50011C38.6999 1.50011 33.7356 1.46565 31.6671 2.63198C29.5985 3.79831 23.1272 20.7408 21.6201 24.7035C20.1131 28.6662 17.099 41.1157 17.099 41.1157C17.099 41.1157 4.54041 93.7487 4.03806 97.1434C3.53572 100.538 1.52633 184.863 2.02868 185.995C2.53104 187.128 38.6999 185.995 38.6999 185.995M38.1976 1.50121C38.1976 1.50121 43.1619 1.46675 45.2304 2.63309C47.2989 3.79942 53.7703 20.742 55.2773 24.7046C56.7843 28.6673 59.7984 41.1168 59.7984 41.1168C59.7984 41.1168 72.357 93.7499 72.8594 97.1445C73.3617 100.539 75.3711 184.864 74.8688 185.997C74.3664 187.129 38.1976 185.997 38.1976 185.997" stroke="black" stroke-width="3"/>
<path d="M16.6191 77.5L37.6191 69.5V88.5H13.1191L16.6191 77.5Z" fill="#19C1F3"/>
<path d="M59.1191 77.5L38.1191 69.5V88.5H62.6191L59.1191 77.5Z" fill="#19C1F3"/>
<path d="M16.6191 77.5L37.6191 69.5V88.5H13.1191L16.6191 77.5Z" stroke="black"/>
<path d="M59.1191 77.5L38.1191 69.5V88.5H62.6191L59.1191 77.5Z" stroke="black"/>
<path d="M51.6191 15.5H25.1191L31.1191 2.5H45.1191L51.6191 15.5Z" fill="black" stroke="black"/>
<path d="M19.6191 31.5H57.1191" stroke="black"/>
<g clip-path="url(#clip0_3003_847)">
<path d="M54.4311 42.6618L52.0951 37.5L50.1191 40.5175L48.1511 37.5L45.8071 42.6618H45.1191V43.4441H48.6551V42.6618H48.1271L48.6391 41.3766L50.1191 43.5L51.5991 41.3766L52.1111 42.6618H51.5831V43.4441H55.1191V42.6618H54.4311Z" fill="#FF0013"/>
</g>
<path d="M14.303 128.691C15.5789 128.261 38.1191 128.691 38.1191 128.691V189.5L1.11914 186.481C1.11914 186.481 7.49928 134.298 7.92374 133.435C8.3482 132.573 13.0272 129.122 14.303 128.691Z" fill="white" stroke="black" stroke-width="2"/>
<path d="M61.9352 128.691C60.6594 128.261 38.1191 128.691 38.1191 128.691V189.5L75.1191 186.481C75.1191 186.481 68.739 134.298 68.3145 133.435C67.8901 132.573 63.2111 129.122 61.9352 128.691Z" fill="white" stroke="black" stroke-width="2"/>
<defs>
<clipPath id="clip0_3003_847">
<rect width="10" height="6" fill="white" transform="translate(45.1191 37.5)"/>
</clipPath>
</defs>
</svg>
