<svg width="80" height="80" viewBox="0 0 80 80" fill="none" xmlns="http://www.w3.org/2000/svg">
<rect x="2.5" y="2.5" width="75" height="75" fill="#747474" stroke="#626161" stroke-width="5"/>
<path d="M15.896 46V34.48H17.672L22.456 40.176L27.24 34.48H29.016V46H27.72V35.952L22.456 42.208L17.192 35.952V46H15.896ZM32.5958 46C32.2438 46 31.9184 45.9147 31.6198 45.744C31.3318 45.5627 31.0971 45.328 30.9158 45.04C30.7451 44.7413 30.6598 44.416 30.6598 44.064V38.656C30.6598 38.304 30.7451 37.984 30.9158 37.696C31.0971 37.3973 31.3318 37.1627 31.6198 36.992C31.9184 36.8107 32.2438 36.72 32.5958 36.72H38.1638C38.5264 36.72 38.8518 36.8107 39.1398 36.992C39.4384 37.1627 39.6731 37.3973 39.8438 37.696C40.0251 37.984 40.1158 38.304 40.1158 38.656V42.016H31.9718V44.064C31.9718 44.2347 32.0304 44.384 32.1478 44.512C32.2758 44.6293 32.4251 44.688 32.5958 44.688H40.1158V46H32.5958ZM31.9718 40.704H38.7878V38.656C38.7878 38.4853 38.7238 38.3413 38.5958 38.224C38.4784 38.096 38.3344 38.032 38.1638 38.032H32.5958C32.4251 38.032 32.2758 38.096 32.1478 38.224C32.0304 38.3413 31.9718 38.4853 31.9718 38.656V40.704ZM41.7859 46V36.72H49.3059C49.6579 36.72 49.9779 36.8107 50.2659 36.992C50.5645 37.1627 50.7992 37.3973 50.9699 37.696C51.1512 37.984 51.2419 38.304 51.2419 38.656V46H49.9299V38.656C49.9299 38.4853 49.8659 38.3413 49.7379 38.224C49.6205 38.096 49.4765 38.032 49.3059 38.032H43.7379C43.5672 38.032 43.4179 38.096 43.2899 38.224C43.1619 38.3413 43.0979 38.4853 43.0979 38.656V46H41.7859ZM54.8465 46C54.4945 46 54.1692 45.9147 53.8705 45.744C53.5825 45.5627 53.3478 45.328 53.1665 45.04C52.9958 44.7413 52.9105 44.416 52.9105 44.064V36.72H54.2225V44.064C54.2225 44.2347 54.2812 44.384 54.3985 44.512C54.5265 44.6293 54.6758 44.688 54.8465 44.688H60.4145C60.5852 44.688 60.7345 44.6293 60.8625 44.512C60.9905 44.384 61.0545 44.2347 61.0545 44.064V36.72H62.3665V44.064C62.3665 44.416 62.2758 44.7413 62.0945 45.04C61.9238 45.328 61.6892 45.5627 61.3905 45.744C61.1025 45.9147 60.7772 46 60.4145 46H54.8465Z" fill="black"/>
</svg>
